# Blender v3.1.2 OBJ File: 'redReticle.blend'
# www.blender.org
mtllib redReticle.mtl
o 立方体
v -1.000000 -0.100000 1.000000
v -1.000000 0.100000 1.000000
v -1.000000 -0.100000 -1.000000
v -1.000000 0.100000 -1.000000
v 1.000000 -0.100000 1.000000
v 1.000000 0.100000 1.000000
v 1.000000 -0.100000 -1.000000
v 1.000000 0.100000 -1.000000
v 0.000000 -0.100000 -1.000000
v 0.000000 0.100000 -1.000000
v 0.000000 -0.100000 1.000000
v 0.000000 0.100000 1.000000
v -1.000000 -0.100000 0.000000
v -1.000000 0.100000 0.000000
v 1.000000 -0.100000 0.000000
v 1.000000 0.100000 0.000000
v -0.500000 -0.100000 -1.000000
v -0.500000 0.100000 1.000000
v -0.500000 0.100000 -1.000000
v -0.500000 -0.100000 1.000000
v -0.500000 -0.100000 0.000000
v -0.500000 0.100000 0.000000
v 0.500000 0.100000 -1.000000
v 0.500000 -0.100000 1.000000
v 0.500000 -0.100000 -1.000000
v 0.500000 0.100000 1.000000
v 0.500000 0.100000 0.000000
v 0.500000 -0.100000 0.000000
v -0.250000 0.100000 -1.000000
v -0.250000 -0.100000 1.000000
v -0.250000 0.100000 0.000000
v -0.250000 -0.100000 -1.000000
v -0.250000 0.100000 1.000000
v -0.250000 -0.100000 0.000000
v 0.250000 -0.100000 -1.000000
v 0.250000 0.100000 1.000000
v 0.250000 -0.100000 0.000000
v 0.250000 0.100000 -1.000000
v 0.250000 -0.100000 1.000000
v 0.250000 0.100000 0.000000
v -1.000000 0.100000 -0.500000
v 1.000000 -0.100000 -0.500000
v -1.000000 -0.100000 -0.500000
v 1.000000 0.100000 -0.500000
v 0.000000 0.100000 -0.500000
v 0.000000 -0.100000 -0.500000
v -0.500000 0.100000 -0.500000
v -0.500000 -0.100000 -0.500000
v 0.500000 -0.100000 -0.500000
v 0.500000 0.100000 -0.500000
v -0.250000 0.100000 -0.500000
v -0.250000 -0.100000 -0.500000
v 0.250000 -0.100000 -0.500000
v 0.250000 0.100000 -0.500000
v -1.000000 -0.100000 -0.250000
v 1.000000 0.100000 -0.250000
v 0.000000 0.100000 -0.250000
v 0.000000 -0.100000 -0.250000
v -0.500000 0.100000 -0.250000
v -0.500000 -0.100000 -0.250000
v 0.500000 -0.100000 -0.250000
v 0.500000 0.100000 -0.250000
v -0.250000 0.100000 -0.250000
v -0.250000 -0.100000 -0.250000
v 0.250000 -0.100000 -0.250000
v 0.250000 0.100000 -0.250000
v -1.000000 0.100000 -0.250000
v 1.000000 -0.100000 -0.250000
v -1.000000 -0.100000 0.500000
v 1.000000 0.100000 0.500000
v 0.000000 0.100000 0.500000
v 0.000000 -0.100000 0.500000
v -1.000000 0.100000 0.500000
v 1.000000 -0.100000 0.500000
v -0.500000 -0.100000 0.500000
v -0.500000 0.100000 0.500000
v 0.500000 0.100000 0.500000
v 0.500000 -0.100000 0.500000
v -0.250000 0.100000 0.500000
v -0.250000 -0.100000 0.500000
v 0.250000 -0.100000 0.500000
v 0.250000 0.100000 0.500000
v -1.000000 0.100000 0.250000
v 1.000000 -0.100000 0.250000
v -1.000000 -0.100000 0.250000
v 1.000000 0.100000 0.250000
v 0.000000 0.100000 0.250000
v 0.000000 -0.100000 0.250000
v -0.500000 -0.100000 0.250000
v -0.500000 0.100000 0.250000
v 0.500000 0.100000 0.250000
v 0.500000 -0.100000 0.250000
v -0.250000 0.100000 0.250000
v -0.250000 -0.100000 0.250000
v 0.250000 -0.100000 0.250000
v 0.250000 0.100000 0.250000
v -1.000000 -0.100000 0.750000
v 1.000000 0.100000 0.750000
v 0.000000 0.100000 0.750000
v 0.000000 -0.100000 0.750000
v -0.500000 -0.100000 0.750000
v -0.500000 0.100000 0.750000
v 0.500000 0.100000 0.750000
v 0.500000 -0.100000 0.750000
v -0.250000 0.100000 0.750000
v -0.250000 -0.100000 0.750000
v 0.250000 -0.100000 0.750000
v 0.250000 0.100000 0.750000
v -1.000000 0.100000 0.750000
v 1.000000 -0.100000 0.750000
v -0.739093 -0.100000 -1.000000
v -0.739093 0.100000 1.000000
v -0.739093 -0.100000 0.000000
v -0.739093 0.100000 -1.000000
v -0.739093 -0.100000 1.000000
v -0.739093 0.100000 0.000000
v -0.739093 -0.100000 -0.500000
v -0.739093 0.100000 -0.500000
v -0.739093 -0.100000 -0.250000
v -0.739093 0.100000 -0.250000
v -0.739093 -0.100000 0.500000
v -0.739093 0.100000 0.500000
v -0.739093 0.100000 0.250000
v -0.739093 -0.100000 0.250000
v -0.739093 -0.100000 0.750000
v -0.739093 0.100000 0.750000
v 0.750000 0.100000 -1.000000
v 0.750000 -0.100000 1.000000
v 0.750000 0.100000 0.000000
v 0.750000 -0.100000 -1.000000
v 0.750000 0.100000 1.000000
v 0.750000 -0.100000 0.000000
v 0.750000 0.100000 -0.500000
v 0.750000 -0.100000 -0.500000
v 0.750000 0.100000 -0.250000
v 0.750000 -0.100000 -0.250000
v 0.750000 0.100000 0.500000
v 0.750000 -0.100000 0.500000
v 0.750000 -0.100000 0.250000
v 0.750000 0.100000 0.250000
v 0.750000 0.100000 0.750000
v 0.750000 -0.100000 0.750000
v -1.000000 0.100000 -0.750000
v 1.000000 -0.100000 -0.750000
v -1.000000 -0.100000 -0.750000
v 1.000000 0.100000 -0.750000
v 0.000000 0.100000 -0.750000
v 0.000000 -0.100000 -0.750000
v -0.500000 0.100000 -0.750000
v -0.500000 -0.100000 -0.750000
v 0.500000 -0.100000 -0.750000
v 0.500000 0.100000 -0.750000
v -0.250000 0.100000 -0.750000
v -0.250000 -0.100000 -0.750000
v 0.250000 -0.100000 -0.750000
v 0.250000 0.100000 -0.750000
v -0.739093 0.100000 -0.750000
v -0.739093 -0.100000 -0.750000
v 0.750000 -0.100000 -0.750000
v 0.750000 0.100000 -0.750000
vt 0.033333 0.000000
vt 0.033333 0.266667
vt 0.000000 0.266667
vt 0.000000 0.000000
vt 0.033333 0.266667
vt 0.033333 0.533333
vt 0.000000 0.533333
vt 0.000000 0.266667
vt 0.300000 0.000000
vt 0.300000 0.266667
vt 0.266667 0.266667
vt 0.266667 0.000000
vt 0.301454 0.266667
vt 0.301454 0.533333
vt 0.266667 0.533333
vt 0.266667 0.266667
vt 0.233333 0.766667
vt 0.266667 0.766667
vt 0.266667 0.800000
vt 0.233333 0.800000
vt 0.765212 0.233333
vt 0.800000 0.233333
vt 0.800000 0.266667
vt 0.765212 0.266667
vt 0.633333 0.233333
vt 0.666667 0.233333
vt 0.666667 0.266667
vt 0.633333 0.266667
vt 0.100000 0.766667
vt 0.133333 0.766667
vt 0.133333 0.800000
vt 0.100000 0.800000
vt 0.433333 0.266667
vt 0.433333 0.533333
vt 0.400000 0.533333
vt 0.400000 0.266667
vt 0.166667 0.266667
vt 0.166667 0.533333
vt 0.133333 0.533333
vt 0.133333 0.266667
vt 0.765212 0.100000
vt 0.800000 0.100000
vt 0.800000 0.133333
vt 0.765212 0.133333
vt 0.233333 0.633333
vt 0.266667 0.633333
vt 0.266667 0.666667
vt 0.233333 0.666667
vt 0.433333 0.000000
vt 0.433333 0.266667
vt 0.400000 0.266667
vt 0.400000 0.000000
vt 0.166667 0.000000
vt 0.166667 0.266667
vt 0.133333 0.266667
vt 0.133333 0.000000
vt 0.100000 0.833333
vt 0.133333 0.833333
vt 0.133333 0.866667
vt 0.100000 0.866667
vt 0.231879 0.266667
vt 0.231879 0.533333
vt 0.200000 0.533333
vt 0.200000 0.266667
vt 0.034788 0.766667
vt 0.066667 0.766667
vt 0.066667 0.800000
vt 0.034788 0.800000
vt 0.700000 0.233333
vt 0.733333 0.233333
vt 0.733333 0.266667
vt 0.700000 0.266667
vt 0.366667 0.266667
vt 0.366667 0.533333
vt 0.333333 0.533333
vt 0.333333 0.266667
vt 0.233333 0.833333
vt 0.266667 0.833333
vt 0.266667 0.866667
vt 0.233333 0.866667
vt 0.500000 0.266667
vt 0.500000 0.533333
vt 0.466667 0.533333
vt 0.466667 0.266667
vt 0.566667 0.233333
vt 0.600000 0.233333
vt 0.600000 0.266667
vt 0.566667 0.266667
vt 0.166667 0.766667
vt 0.200000 0.766667
vt 0.200000 0.800000
vt 0.166667 0.800000
vt 0.100000 0.266667
vt 0.100000 0.533333
vt 0.066667 0.533333
vt 0.066667 0.266667
vt 0.133333 0.833333
vt 0.166667 0.833333
vt 0.166667 0.866667
vt 0.133333 0.866667
vt 0.000000 0.833333
vt 0.033333 0.833333
vt 0.033333 0.866667
vt 0.000000 0.866667
vt 0.500000 0.000000
vt 0.500000 0.266667
vt 0.466667 0.266667
vt 0.466667 0.000000
vt 0.233333 0.566667
vt 0.266667 0.566667
vt 0.266667 0.600000
vt 0.233333 0.600000
vt 0.765212 0.033333
vt 0.800000 0.033333
vt 0.800000 0.066667
vt 0.765212 0.066667
vt 0.100000 0.000000
vt 0.100000 0.266667
vt 0.066667 0.266667
vt 0.066667 0.000000
vt 0.000000 0.800000
vt 0.033333 0.800000
vt 0.200000 0.800000
vt 0.233333 0.800000
vt 0.200000 0.833333
vt 0.133333 0.800000
vt 0.166667 0.800000
vt 0.066667 0.800000
vt 0.100000 0.800000
vt 0.066667 0.833333
vt 0.266667 0.800000
vt 0.133333 0.800000
vt 0.000000 0.900000
vt 0.033333 0.900000
vt 0.033333 0.933333
vt 0.000000 0.933333
vt 0.200000 0.900000
vt 0.233333 0.900000
vt 0.233333 0.933333
vt 0.200000 0.933333
vt 0.133333 0.900000
vt 0.166667 0.900000
vt 0.166667 0.933333
vt 0.133333 0.933333
vt 0.066667 0.900000
vt 0.100000 0.900000
vt 0.100000 0.933333
vt 0.066667 0.933333
vt 0.266667 0.900000
vt 0.266667 0.933333
vt 0.133333 0.900000
vt 0.133333 0.933333
vt 0.233333 0.000000
vt 0.233333 0.266667
vt 0.200000 0.266667
vt 0.200000 0.000000
vt 0.765212 0.166667
vt 0.800000 0.166667
vt 0.800000 0.200000
vt 0.765212 0.200000
vt 0.233333 0.700000
vt 0.266667 0.700000
vt 0.266667 0.733333
vt 0.233333 0.733333
vt 0.366667 0.000000
vt 0.366667 0.266667
vt 0.333333 0.266667
vt 0.333333 0.000000
vt 0.266667 0.000000
vt 0.266667 0.266667
vt 0.000000 0.733333
vt 0.034788 0.733333
vt 0.000000 0.766667
vt 0.000000 0.666667
vt 0.034788 0.666667
vt 0.034788 0.700000
vt 0.000000 0.700000
vt 0.000000 0.600000
vt 0.034788 0.600000
vt 0.034788 0.633333
vt 0.000000 0.633333
vt 0.000000 0.566667
vt 0.034788 0.566667
vt 0.000000 0.800000
vt 0.266667 0.266667
vt 0.266667 0.533333
vt 0.533333 0.200000
vt 0.566667 0.200000
vt 0.533333 0.233333
vt 0.533333 0.133333
vt 0.566667 0.133333
vt 0.566667 0.166667
vt 0.533333 0.166667
vt 0.533333 0.066667
vt 0.566667 0.066667
vt 0.566667 0.100000
vt 0.533333 0.100000
vt 0.533333 0.033333
vt 0.566667 0.033333
vt 0.533333 0.266667
vt 0.533333 0.266667
vt 0.533333 0.533333
vt 0.533333 0.000000
vt 0.566667 0.000000
vt 0.200000 0.533333
vt 0.233333 0.533333
vt 0.200000 0.566667
vt 0.000000 0.533333
vt 0.034788 0.533333
vt 0.733333 0.000000
vt 0.765212 0.000000
vt 0.733333 0.033333
vt 0.100000 0.533333
vt 0.133333 0.533333
vt 0.133333 0.566667
vt 0.100000 0.566667
vt 0.633333 0.000000
vt 0.666667 0.000000
vt 0.666667 0.033333
vt 0.633333 0.033333
vt 0.800000 0.000000
vt 0.266667 0.533333
vt 0.533333 0.000000
vt 0.533333 0.266667
vt 0.700000 0.000000
vt 0.700000 0.033333
vt 0.066667 0.533333
vt 0.066667 0.566667
vt 0.166667 0.533333
vt 0.166667 0.566667
vt 0.600000 0.000000
vt 0.600000 0.033333
vt 0.665212 0.533333
vt 0.665212 0.800000
vt 0.466667 0.800000
vt 0.466667 0.533333
vt 0.733333 0.266667
vt 0.733333 0.533333
vt 0.533333 0.533333
vt 0.533333 0.266667
vt 0.665212 0.800000
vt 0.665212 0.533333
vt 0.863758 0.533333
vt 0.863758 0.800000
vt 0.266667 0.800000
vt 0.266667 0.533333
vt 0.933333 0.000000
vt 0.933333 0.266667
vt 0.800000 0.266667
vt 0.800000 0.000000
vt 0.997091 0.533333
vt 0.997091 0.800000
vt 0.863758 0.800000
vt 0.863758 0.533333
vt 0.733333 0.533333
vt 0.733333 0.266667
vt 0.866667 0.266667
vt 0.866667 0.533333
vt 0.866667 0.266667
vt 1.000000 0.266667
vt 1.000000 0.533333
vt 0.866667 0.533333
vn -1.0000 0.0000 0.0000
vn 0.0000 0.0000 -1.0000
vn 1.0000 0.0000 0.0000
vn 0.0000 0.0000 1.0000
vn 0.0000 -1.0000 0.0000
vn 0.0000 1.0000 0.0000
usemtl マテリアル
s off
f 145/1/1 143/2/1 4/3/1 3/4/1
f 130/5/2 127/6/2 8/7/2 7/8/2
f 110/9/3 98/10/3 6/11/3 5/12/3
f 115/13/4 112/14/4 2/15/4 1/16/4
f 142/17/5 110/18/5 5/19/5 128/20/5
f 126/21/6 109/22/6 2/23/6 112/24/6
f 108/25/6 99/26/6 12/27/6 36/28/6
f 106/29/5 100/30/5 11/31/5 30/32/5
f 39/33/4 36/34/4 12/35/4 11/36/4
f 32/37/2 29/38/2 10/39/2 9/40/2
f 120/41/6 67/42/6 14/43/6 116/44/6
f 136/45/5 68/46/5 15/47/5 132/48/5
f 68/49/3 56/50/3 16/51/3 15/52/3
f 85/53/1 83/54/1 14/55/1 13/56/1
f 63/57/6 59/58/6 22/59/6 31/60/6
f 111/61/2 114/62/2 19/63/2 17/64/2
f 125/65/5 101/66/5 20/67/5 115/68/5
f 105/69/6 102/70/6 18/71/6 33/72/6
f 30/73/4 33/74/4 18/75/4 20/76/4
f 65/77/5 61/78/5 28/79/5 37/80/5
f 128/81/4 131/82/4 26/83/4 24/84/4
f 141/85/6 103/86/6 26/87/6 131/88/6
f 107/89/5 104/90/5 24/91/5 39/92/5
f 35/93/2 38/94/2 23/95/2 25/96/2
f 11/36/4 12/35/4 33/74/4 30/73/4
f 99/26/6 105/69/6 33/72/6 12/27/6
f 60/97/5 64/98/5 34/99/5 21/100/5
f 17/64/2 19/63/2 29/38/2 32/37/2
f 101/66/5 106/29/5 30/32/5 20/67/5
f 9/40/2 10/39/2 38/94/2 35/93/2
f 100/30/5 107/89/5 39/92/5 11/31/5
f 62/101/6 66/102/6 40/103/6 27/104/6
f 24/84/4 26/83/4 36/34/4 39/33/4
f 103/86/6 108/25/6 36/28/6 26/87/6
f 144/105/3 146/106/3 44/107/3 42/108/3
f 159/109/5 144/110/5 42/111/5 134/112/5
f 157/113/6 143/114/6 41/115/6 118/116/6
f 55/117/1 67/118/1 41/119/1 43/120/1
f 13/56/1 14/55/1 67/118/1 55/117/1
f 50/121/6 54/122/6 66/102/6 62/101/6
f 46/123/5 53/124/5 65/77/5 58/125/5
f 48/126/5 52/127/5 64/98/5 60/97/5
f 45/128/6 51/129/6 63/57/6 57/130/6
f 53/124/5 49/131/5 61/78/5 65/77/5
f 51/129/6 47/132/6 59/58/6 63/57/6
f 42/108/3 44/107/3 56/50/3 68/49/3
f 134/112/5 42/111/5 68/46/5 136/45/5
f 118/116/6 41/115/6 67/42/6 120/41/6
f 54/122/6 45/128/6 57/130/6 66/102/6
f 52/127/5 46/123/5 58/125/5 64/98/5
f 91/133/6 96/134/6 82/135/6 77/136/6
f 88/137/5 95/138/5 81/139/5 72/140/5
f 89/141/5 94/142/5 80/143/5 75/144/5
f 87/145/6 93/146/6 79/147/6 71/148/6
f 95/138/5 92/149/5 78/150/5 81/139/5
f 93/146/6 90/151/6 76/152/6 79/147/6
f 97/153/1 109/154/1 73/155/1 69/156/1
f 94/142/5 88/137/5 72/140/5 80/143/5
f 96/134/6 87/145/6 71/148/6 82/135/6
f 123/157/6 83/158/6 73/159/6 122/160/6
f 139/161/5 84/162/5 74/163/5 138/164/5
f 84/165/3 86/166/3 70/167/3 74/168/3
f 15/52/3 16/51/3 86/166/3 84/165/3
f 132/48/5 15/47/5 84/162/5 139/161/5
f 116/44/6 14/43/6 83/158/6 123/157/6
f 31/60/6 22/59/6 90/151/6 93/146/6
f 37/80/5 28/79/5 92/149/5 95/138/5
f 21/100/5 34/99/5 94/142/5 89/141/5
f 27/104/6 40/103/6 96/134/6 91/133/6
f 69/156/1 73/155/1 83/54/1 85/53/1
f 1/169/1 2/170/1 109/154/1 97/153/1
f 122/160/6 73/159/6 109/22/6 126/21/6
f 138/164/5 74/163/5 110/18/5 142/17/5
f 74/168/3 70/167/3 98/10/3 110/9/3
f 69/171/5 121/172/5 125/65/5 97/173/5
f 13/174/5 113/175/5 124/176/5 85/177/5
f 85/177/5 124/176/5 121/172/5 69/171/5
f 43/178/5 117/179/5 119/180/5 55/181/5
f 145/182/5 158/183/5 117/179/5 43/178/5
f 97/173/5 125/65/5 115/68/5 1/184/5
f 3/185/2 4/186/2 114/62/2 111/61/2
f 55/181/5 119/180/5 113/175/5 13/174/5
f 102/70/6 126/21/6 112/24/6 18/71/6
f 20/76/4 18/75/4 112/14/4 115/13/4
f 70/187/6 137/188/6 141/85/6 98/189/6
f 16/190/6 129/191/6 140/192/6 86/193/6
f 86/193/6 140/192/6 137/188/6 70/187/6
f 44/194/6 133/195/6 135/196/6 56/197/6
f 146/198/6 160/199/6 133/195/6 44/194/6
f 98/189/6 141/85/6 131/88/6 6/200/6
f 5/201/4 6/202/4 131/82/4 128/81/4
f 56/197/6 135/196/6 129/191/6 16/190/6
f 104/90/5 142/17/5 128/20/5 24/91/5
f 25/96/2 23/95/2 127/6/2 130/5/2
f 8/203/6 127/204/6 160/199/6 146/198/6
f 25/205/5 130/206/5 159/109/5 151/207/5
f 3/208/5 111/209/5 158/183/5 145/182/5
f 19/210/6 114/211/6 157/113/6 149/212/6
f 32/213/5 9/214/5 148/215/5 154/216/5
f 38/217/6 10/218/6 147/219/6 156/220/6
f 114/211/6 4/221/6 143/114/6 157/113/6
f 130/206/5 7/222/5 144/110/5 159/109/5
f 7/223/3 8/224/3 146/106/3 144/105/3
f 29/225/6 19/210/6 149/212/6 153/226/6
f 111/209/5 17/227/5 150/228/5 158/183/5
f 35/229/5 25/205/5 151/207/5 155/230/5
f 127/204/6 23/231/6 152/232/6 160/199/6
f 10/218/6 29/225/6 153/226/6 147/219/6
f 17/227/5 32/213/5 154/216/5 150/228/5
f 9/214/5 35/229/5 155/230/5 148/215/5
f 23/231/6 38/217/6 156/220/6 152/232/6
f 43/120/1 41/119/1 143/2/1 145/1/1
f 158/233/2 157/234/2 160/235/2 159/236/2
f 125/237/1 126/238/1 157/239/1 158/240/1
f 126/241/4 125/242/4 142/243/4 141/244/4
f 160/235/3 141/245/3 142/246/3 159/236/3
f 48/247/2 47/248/2 50/249/2 49/250/2
f 49/251/3 50/252/3 77/253/3 78/254/3
f 76/255/4 75/256/4 78/257/4 77/258/4
f 48/259/1 75/260/1 76/261/1 47/262/1
